<svg width="159" height="41" viewBox="0 0 159 41" fill="none" xmlns="http://www.w3.org/2000/svg">
<g clip-path="url(#clip0)">
<path d="M25.2206 34.5289C24.9762 34.6277 24.7318 34.6771 24.4874 34.7759C24.6829 34.7265 24.9273 34.6277 25.2206 34.5289ZM-0.000438534 20.5C-0.0102141 20.831 0.00933706 21.1619 0.0484394 21.488C0.0386638 21.5917 0.058215 21.6905 0.0973174 21.7843C0.0973174 21.9819 0.146195 22.2289 0.146195 22.4265L0.195073 22.7723C0.204849 22.9896 0.239063 23.202 0.292829 23.4145C0.292829 23.5133 0.341707 23.612 0.341707 23.7602C0.390585 24.0072 0.439463 24.2048 0.488341 24.4518C0.488341 24.5506 0.537219 24.6 0.537219 24.6988C0.595873 25.0001 0.678965 25.2965 0.781609 25.5879C0.781609 25.6867 0.830487 25.7361 0.830487 25.8349C0.879365 26.0325 0.977121 26.2795 1.026 26.4771L1.12375 26.8229C1.17263 27.0205 1.27039 27.1687 1.31927 27.3663C1.34859 27.4898 1.39747 27.6034 1.4659 27.712C1.51478 27.8108 1.61253 28.0578 1.71029 28.2554L1.85692 28.6012C1.95468 28.8482 2.10131 29.0458 2.19907 29.2928L2.3457 29.5892C2.44346 29.7867 2.59009 30.0337 2.68785 30.2313C2.73673 30.3301 2.83448 30.4783 2.88336 30.5771C2.93224 30.6759 3.07887 30.8735 3.17663 31.0217C3.24506 31.1452 3.32815 31.2588 3.42102 31.3675C3.51877 31.4663 3.61653 31.6639 3.71429 31.7626C3.81204 31.8664 3.89513 31.98 3.95868 32.1084C4.00755 32.2072 4.15419 32.3554 4.25194 32.5036L4.49633 32.8494C4.69185 33.0519 4.86781 33.2643 5.03399 33.4916L5.37614 33.8373L5.6694 34.1337L6.06043 34.5289L6.3537 34.8253L6.74472 35.1711L7.03799 35.4181C7.18462 35.5663 7.33126 35.6651 7.47789 35.8133L7.6734 35.9614C8.01066 36.2529 8.37236 36.5147 8.74872 36.7518L8.89535 36.8506C9.09086 36.9494 9.2375 37.0976 9.43301 37.1964L9.6774 37.3446L10.2151 37.6904L10.4594 37.8386C10.6647 37.9373 10.8602 38.051 11.046 38.1843L11.2415 38.2831C11.9258 38.6289 12.6101 38.9747 13.3432 39.2711L13.4899 39.3205L14.1253 39.5675L14.3697 39.6663C14.5896 39.7552 14.8194 39.8194 15.054 39.8639L15.2495 39.9133C17.5614 40.6443 19.9662 41.0099 22.3857 41C31.1348 41 38.7109 36.3566 42.3768 29.5892C42.3328 23.8689 39.5907 18.5093 34.9962 15.1651V15.2145C31.5258 12.5865 27.3077 11.1688 22.9722 11.1639C19.453 11.1639 16.6669 11.4108 13.2944 13.6831C13.2944 13.6831 11.0949 15.5602 12.5612 17.0916C13.7831 18.3759 16.227 16.647 16.227 16.647C17.7765 15.7529 19.5263 15.2787 21.3104 15.2639C26.7309 15.1157 31.2472 19.438 31.3939 24.9161C31.5112 29.3817 28.6665 33.373 24.4385 34.6771C24.3994 34.682 24.3652 34.7018 24.3408 34.7265C24.1453 34.7759 23.9498 34.8253 23.8031 34.8747C23.1579 35.0229 22.5079 35.1217 21.848 35.1711H20.8216L20.7727 35.2205L20.0395 35.1711H19.9418L19.2086 35.2205H19.062C18.8665 35.1711 18.6709 35.1711 18.4754 35.1217L18.231 35.0229C17.9818 34.9784 17.7374 34.9142 17.4979 34.8253C10.2639 32.7506 6.25594 24.4518 8.5532 16.2518C10.8505 8.05181 18.5732 3.11205 25.8071 5.18675C26.076 5.24602 26.335 5.33 26.5892 5.43373C26.6869 5.43373 26.7358 5.48313 26.8336 5.53253L27.3712 5.77952C27.469 5.82892 27.5179 5.82892 27.6156 5.87831L28.2021 6.1747L28.3488 6.27349C28.5932 6.42169 28.8376 6.52048 29.0331 6.66867C29.0819 6.71807 29.1308 6.71807 29.1797 6.76747C29.3801 6.8712 29.561 7.00458 29.7174 7.16265L29.9129 7.31084C30.0595 7.45904 30.255 7.55783 30.4017 7.70602L30.5483 7.80482C30.9637 8.15554 31.3548 8.5359 31.7214 8.94096L31.8191 9.03976C31.9706 9.23241 32.1319 9.41518 32.3079 9.58313L32.4057 9.68193C32.9238 10.3636 33.3832 11.0898 33.7742 11.8554L33.8231 11.9048C34.1359 12.5075 34.395 13.1348 34.6052 13.7819C39.4978 16.8446 42.67 22.0659 43.1588 27.8602C43.4814 27.0847 43.7551 26.2943 43.9897 25.4892V25.3904C44.0875 25.0446 44.1364 24.7482 44.2341 24.4024C44.2341 24.3036 44.283 24.2048 44.283 24.106C44.3319 23.8096 44.3807 23.5626 44.4296 23.2663C44.4296 23.1675 44.4785 23.0193 44.4785 22.9205C44.5274 22.6241 44.5274 22.3771 44.5763 22.0807C44.5665 21.9622 44.586 21.8436 44.6251 21.7349C44.6642 21.3398 44.6838 20.9446 44.674 20.5494C44.674 9.18795 34.654 0 22.3368 0C10.0195 0 -0.000438534 9.13855 -0.000438534 20.5Z" fill="#7B7979"/>
<path d="M51.6147 18.7214V23.8093C51.5952 24.1897 51.6831 24.5651 51.8591 24.8961C52.1084 25.1974 52.4994 25.3456 52.8855 25.2913H53.9609C54.2932 25.3407 54.6207 25.1875 54.7918 24.8961C54.9335 24.5355 54.9971 24.1502 54.9873 23.7599V18.178H53.5698V17.3383H55.7693V24.4021C55.784 24.8072 55.6618 25.2073 55.4272 25.5383C55.2317 25.8445 54.9091 26.0421 54.5474 26.0816H52.2013C51.7516 26.0915 51.3263 25.8692 51.0771 25.4889C50.8718 25.1085 50.7545 24.6837 50.7349 24.2539V10.5708C50.7251 10.1163 50.8473 9.67175 51.0771 9.28645C51.3263 8.90608 51.7516 8.6838 52.2013 8.69368H54.5474C54.9433 8.68874 55.3148 8.89621 55.525 9.23705C55.7205 9.58283 55.8182 9.97307 55.8182 10.3732V14.1768H54.9873V11.0154C54.9971 10.6251 54.9335 10.2398 54.7918 9.87922C54.694 9.63223 54.4008 9.48404 53.9609 9.48404H52.4456C52.1719 9.46922 51.9178 9.62729 51.8102 9.87922C51.6538 10.2201 51.5707 10.5905 51.5658 10.966V18.7214H51.6147Z" fill="#7B7979"/>
<path d="M62.0259 18.7219V23.8098C62.0064 24.205 62.0894 24.5953 62.2703 24.946C62.5196 25.2473 62.9106 25.3955 63.2967 25.3412H64.372C64.7044 25.3906 65.0319 25.2374 65.203 24.946C65.3545 24.6051 65.4376 24.2347 65.4474 23.8592V11.0653C65.4571 10.675 65.3936 10.2897 65.2518 9.92912C65.1541 9.68213 64.8608 9.53393 64.4209 9.53393H62.8568C62.5929 9.54381 62.3485 9.69695 62.2214 9.92912C62.065 10.27 61.9819 10.6404 61.977 11.0159L62.0259 18.7219ZM66.1805 24.2544C66.2001 24.7336 66.0192 25.1979 65.6917 25.5388C65.3985 25.8845 64.9684 26.0821 64.5187 26.0821H62.5636C62.1139 26.092 61.6886 25.8697 61.4394 25.4894C61.2096 25.1189 61.0874 24.6891 61.0972 24.2544V10.5713C61.0874 10.1168 61.2096 9.67225 61.4394 9.28695C61.6886 8.90658 62.1139 8.6843 62.5636 8.69418H64.7631C65.203 8.66948 65.6184 8.90165 65.8384 9.28695C66.0339 9.63273 66.1316 10.023 66.1316 10.4231V14.2267L66.1805 24.2544Z" fill="#7B7979"/>
<path d="M71.6064 26.1311V8.74316H72.4863V25.242H76.6409L76.6898 26.1311H71.6064Z" fill="#7B7979"/>
<path d="M82.5545 25.39H83.5321C83.8498 25.3011 84.1528 25.1529 84.4119 24.9454C84.7638 24.4465 85.0473 23.8982 85.2428 23.3153C85.5605 22.5249 85.756 21.6951 85.8293 20.8454C85.8782 20.055 85.976 18.9189 86.0737 17.3876C86.0737 15.713 85.9271 14.0434 85.6338 12.3984C85.5312 11.5142 85.1548 10.6843 84.5585 10.0273C84.2995 9.77047 83.9475 9.62722 83.5809 9.63216H82.6034L82.5545 25.39ZM81.7725 26.131V8.8418H83.9231C84.231 8.84674 84.5341 8.93071 84.8029 9.08878C85.2135 9.45433 85.5752 9.86927 85.8782 10.3237C86.2643 11.2524 86.5136 12.2354 86.6114 13.2382C86.7922 14.5966 86.8704 15.9649 86.8558 17.3382C86.8558 18.5237 86.8069 19.6599 86.7091 20.8454C86.6456 21.6852 86.4794 22.515 86.2204 23.3153C86.0248 23.8488 85.7804 24.3625 85.4872 24.8466C85.2917 25.1529 85.0815 25.4493 84.8518 25.7358C84.5487 25.9877 84.1675 26.126 83.7765 26.131H81.7725Z" fill="#7B7979"/>
<path d="M92.2812 26.1315V8.79297H97.1691V9.58333H93.1122V16.746H96.8269V17.6845H93.1122V25.2918H97.3157V26.1315H92.2812Z" fill="#7B7979"/>
<path d="M102.692 8.79256L103.621 8.74316L106.896 21.9323V8.74316H107.727V26.1311H107.043L103.572 12.2998V26.1311H102.692V8.79256Z" fill="#7B7979"/>
<path d="M122.292 18.7214V23.8093C122.273 24.2045 122.356 24.5948 122.537 24.9455C122.786 25.2468 123.177 25.395 123.563 25.3407H124.639C124.971 25.3901 125.298 25.2369 125.469 24.9455C125.611 24.5849 125.675 24.1996 125.665 23.8093V18.2274H124.248V17.3877H126.447V24.4515C126.462 24.8566 126.34 25.2567 126.105 25.5877C125.919 25.8791 125.616 26.0816 125.274 26.131H122.928C122.478 26.1409 122.053 25.9186 121.804 25.5383C121.598 25.1579 121.481 24.7331 121.461 24.3033V10.5708C121.452 10.1163 121.574 9.67175 121.804 9.28645C122.053 8.90608 122.478 8.6838 122.928 8.69368H125.274C125.67 8.68874 126.041 8.89621 126.252 9.23705C126.452 9.57789 126.54 9.97801 126.496 10.3732V14.1768H125.763V11.0154C125.773 10.6251 125.709 10.2398 125.567 9.87922C125.469 9.63223 125.176 9.48404 124.736 9.48404H123.172C122.908 9.49392 122.664 9.64705 122.537 9.87922C122.38 10.2201 122.297 10.5905 122.292 10.966V18.7214Z" fill="#7B7979"/>
<path d="M134.659 12.2504L132.802 26.1311H131.824L134.464 8.74316H135.392L138.227 26.1311H137.152L134.855 10.4721L134.659 12.2504Z" fill="#7B7979"/>
<path d="M143.261 8.74316H145.754H148.295V9.58292H147.415H146.096V26.1311H145.314V9.58292H144.141H143.261V8.74316Z" fill="#7B7979"/>
<path d="M153.672 26.1315V8.79297H158.609L158.56 9.58333H154.552V16.746H158.266V17.6845H154.552V25.2918H158.706L158.755 26.1315H153.672Z" fill="#7B7979"/>
<path d="M50.9795 30.0826H51.8593C52.1232 30.0727 52.3823 30.0925 52.6413 30.132C52.8857 30.2061 53.091 30.3642 53.2279 30.5766C53.4283 30.8828 53.5163 31.2484 53.4723 31.6139C53.5016 32.0239 53.3794 32.429 53.1301 32.7501C52.8711 33.0069 52.5191 33.1502 52.1526 33.1452L53.6678 36.0597H53.0324L51.6149 33.1452V36.0597H50.9795V30.0826ZM51.566 30.5766V32.7007H51.8104C52.0255 32.6908 52.2405 32.6611 52.4458 32.6019C52.5925 32.5377 52.7 32.4092 52.7391 32.2561C52.7977 32.0486 52.8271 31.8313 52.8368 31.6139C52.8711 31.3175 52.8026 31.0211 52.6413 30.7742C52.436 30.6062 52.1672 30.5321 51.9082 30.5766H51.566Z" fill="#7B7979"/>
<path d="M60.1691 30.083V30.577H58.7028V32.7011H60.1691V33.2445H58.7028V35.6155H60.1691V36.1095H58.0674V30.083H60.1691Z" fill="#7B7979"/>
<path d="M64.7144 35.9118V35.1708C65.0076 35.482 65.4133 35.6598 65.8386 35.6648C66.1221 35.6746 66.3958 35.5462 66.5717 35.319C66.7575 35.1362 66.8601 34.8892 66.865 34.6274C66.865 34.4051 66.8112 34.1878 66.7184 33.9852C66.6059 33.7728 66.4398 33.6049 66.2296 33.4913L65.5942 33.0961L65.0076 32.6515C64.8659 32.5083 64.7486 32.3403 64.6655 32.1575C64.5677 31.9402 64.514 31.7031 64.5189 31.466C64.5335 30.9028 64.8512 30.3891 65.3498 30.1322C65.5844 30.0334 65.8337 29.984 66.083 29.984C66.4447 29.9742 66.8064 30.0779 67.1094 30.2804V31.0214C66.9774 30.893 66.8259 30.7744 66.6695 30.6756C66.1905 30.3743 65.56 30.5175 65.2618 31.0016C65.1592 31.1696 65.1054 31.3672 65.1054 31.5648C65.1152 31.8463 65.2374 32.1131 65.4475 32.3057C65.5795 32.4342 65.731 32.5527 65.8874 32.6515L66.6206 33.1455C66.8894 33.2937 67.1094 33.516 67.256 33.7877C67.388 34.0099 67.4564 34.2668 67.4515 34.5286C67.4564 34.8201 67.388 35.1115 67.256 35.3684C66.8406 36.0599 66.0292 36.4008 65.252 36.2081C65.0565 36.0599 64.861 36.0105 64.7144 35.9118Z" fill="#7B7979"/>
<path d="M74.1971 30.083V30.577H73.1706V36.1095H72.5352V30.577H71.5088V30.083H74.1971Z" fill="#7B7979"/>
<path d="M79.8663 30.083L81.2348 36.1095H80.5506L80.3062 34.8746H78.8398L78.5954 36.1095H77.9111L79.2308 30.083H79.8663ZM78.9376 34.3806H80.1595V34.1336L80.1106 33.8372V33.6396C80.1106 33.5557 80.096 33.4717 80.0618 33.3926C80.0129 33.2938 80.0618 33.1457 79.964 32.9975C79.8663 32.8493 79.9151 32.6517 79.8663 32.5035C79.7929 32.2269 79.7441 31.9453 79.7196 31.6637C79.6952 31.3822 79.6463 31.1006 79.573 30.824C79.5632 30.9919 79.529 31.1599 79.4752 31.3179C79.4264 31.4661 79.4752 31.6143 79.4264 31.7625C79.3775 31.9107 79.4264 32.0589 79.3775 32.1577C79.3286 32.2565 79.3775 32.4541 79.2797 32.6517C79.182 32.8493 79.2797 32.8987 79.182 33.0469C79.0842 33.1951 79.1331 33.3432 79.1331 33.4914C79.1429 33.6248 79.1233 33.7582 79.0842 33.8866C79.0353 34.0348 79.0353 34.183 78.9865 34.3806" fill="#7B7979"/>
<path d="M85.39 30.083H86.0254V34.4794C86.0254 34.7807 86.0742 35.082 86.172 35.3685C86.2844 35.5859 86.519 35.7045 86.7585 35.6649C86.9492 35.66 87.13 35.6106 87.2962 35.5167C87.4233 35.4179 87.5064 35.2796 87.5406 35.1216C87.5797 34.8746 87.5992 34.6276 87.5895 34.3806V30.083H88.2249V34.3312C88.2151 34.6622 88.1858 34.9931 88.1271 35.3192C88.0782 35.5711 87.9365 35.7983 87.7361 35.9613C87.477 36.1392 87.1691 36.2281 86.8563 36.2083C86.5532 36.2132 86.2502 36.1441 85.9765 36.0107C85.7663 35.8724 85.6099 35.6649 85.5366 35.4179C85.4388 35.0969 85.3851 34.7659 85.39 34.43V30.083Z" fill="#7B7979"/>
<path d="M93.0146 30.0826H93.8945C94.1584 30.0727 94.4174 30.0925 94.6765 30.132C94.9209 30.2061 95.1262 30.3642 95.263 30.5766C95.4634 30.8828 95.5514 31.2484 95.5074 31.6139C95.5367 32.0239 95.4146 32.429 95.1653 32.7501C94.9062 33.0069 94.5543 33.1502 94.1877 33.1452L95.7029 36.0597H95.0675L93.6501 33.1452V36.0597H93.0146V30.0826ZM93.6012 30.5766V32.7007H93.8456C94.0606 32.6908 94.2757 32.6611 94.481 32.6019C94.6276 32.5377 94.7351 32.4092 94.7742 32.2561C94.8329 32.0486 94.8622 31.8313 94.872 31.6139C94.9111 31.3126 94.8231 31.0063 94.6276 30.7742C94.4223 30.6062 94.1535 30.5321 93.8945 30.5766H93.6012Z" fill="#7B7979"/>
<path d="M101.471 30.083L102.839 36.1095H102.155L101.911 34.8746H100.493L100.249 36.1095H99.5645L100.884 30.083H101.471ZM100.591 34.3806H101.862V34.1336L101.813 33.8372V33.6396C101.813 33.5557 101.798 33.4717 101.764 33.3926C101.715 33.2938 101.764 33.1457 101.666 32.9975C101.568 32.8493 101.617 32.6517 101.568 32.5035C101.495 32.2269 101.446 31.9453 101.422 31.6637C101.397 31.3822 101.348 31.1006 101.275 30.824C101.265 30.9919 101.231 31.1599 101.177 31.3179C101.129 31.4661 101.177 31.6143 101.129 31.7625C101.08 31.9107 101.129 32.0589 101.08 32.1577C101.031 32.2565 101.08 32.4541 100.982 32.6517C100.884 32.8493 100.982 32.8987 100.884 33.0469C100.786 33.1951 100.884 33.3432 100.835 33.4914C100.786 33.6396 100.835 33.7384 100.786 33.8866C100.738 34.0348 100.738 34.183 100.689 34.3806" fill="#7B7979"/>
<path d="M109.34 30.0836H109.878V36.1101H109.34C109.242 35.8137 109.145 35.5173 108.998 35.1221L108.803 34.6282L108.656 34.233C108.656 34.1342 108.509 33.8872 108.412 33.5414C108.216 33.0474 108.021 32.5041 107.825 32.0595C107.722 31.7878 107.639 31.5062 107.581 31.2197C107.62 31.6149 107.639 32.0101 107.63 32.4053V36.0607H107.043V30.0342H107.581C107.634 30.2021 107.703 30.3651 107.776 30.5282C107.874 30.8245 107.972 31.0715 108.069 31.3185C108.113 31.4371 108.162 31.5507 108.216 31.6643C108.25 31.8174 108.299 31.9656 108.363 32.1089L108.509 32.5041C108.509 32.5979 108.548 32.6819 108.607 32.751C108.9 33.5414 109.047 34.0354 109.145 34.1836L109.389 34.8751V33.9366L109.34 30.0836Z" fill="#7B7979"/>
<path d="M116.867 30.083V30.577H115.841V36.1095H115.254V30.577H114.228V30.083H116.867Z" fill="#7B7979"/>
<path d="M128.011 32.8985H129.575V34.0347C129.575 34.4348 129.526 34.8349 129.429 35.2202C129.365 35.4968 129.214 35.7389 128.989 35.9118C128.74 36.0698 128.451 36.1538 128.158 36.1587C127.806 36.2081 127.449 36.0995 127.18 35.8624C126.96 35.6796 126.789 35.4425 126.692 35.1708C126.604 34.8794 126.54 34.583 126.496 34.2816V32.7997C126.486 32.4687 126.501 32.1378 126.545 31.8118C126.579 31.5055 126.662 31.2042 126.789 30.9226C126.892 30.6559 127.063 30.4187 127.278 30.231C127.522 30.0236 127.845 29.9347 128.158 29.984C128.476 29.9742 128.788 30.0828 129.038 30.2804C129.263 30.5175 129.429 30.804 129.526 31.1202L128.94 31.3672C128.842 30.8238 128.598 30.5768 128.207 30.5768C127.821 30.5274 127.459 30.7843 127.376 31.1696C127.234 31.6142 127.171 32.0834 127.18 32.5527V32.7009V33.3431C127.171 33.8766 127.239 34.4101 127.376 34.9238C127.474 35.3684 127.669 35.6154 127.962 35.6648H128.207C128.471 35.7092 128.735 35.566 128.842 35.319C128.94 35.0325 128.989 34.7312 128.989 34.4298V33.4419H128.06L128.011 32.8985Z" fill="#7B7979"/>
<path d="M134.121 30.0826H135.001C135.265 30.0727 135.524 30.0925 135.783 30.132C136.027 30.2061 136.233 30.3642 136.37 30.5766C136.57 30.8828 136.658 31.2484 136.614 31.6139C136.643 32.0239 136.521 32.429 136.272 32.7501C136.013 33.0069 135.661 33.1502 135.294 33.1452L136.761 36.0597H136.125L134.708 33.1452V36.0597H134.072L134.121 30.0826ZM134.757 30.5766V32.7007H135.001C135.216 32.6908 135.431 32.6611 135.636 32.6019C135.783 32.5377 135.891 32.4092 135.93 32.2561C135.988 32.0486 136.018 31.8313 136.027 31.6139C136.066 31.3126 135.979 31.0063 135.783 30.7742C135.578 30.6062 135.309 30.5321 135.05 30.5766H134.757Z" fill="#7B7979"/>
<path d="M141.013 33.6398V32.7013C141.022 32.2863 141.052 31.8763 141.11 31.4663C141.174 31.0761 141.326 30.7056 141.55 30.3796C141.809 30.0536 142.21 29.8708 142.626 29.8856C143.026 29.8856 143.417 30.0437 143.701 30.3302C143.94 30.6167 144.107 30.9526 144.19 31.3181L144.336 32.5037V33.541C144.332 34.1684 144.195 34.7908 143.945 35.3687C143.877 35.5219 143.774 35.6552 143.652 35.7639C143.525 35.8726 143.374 35.9566 143.212 36.0109C143.036 36.0652 142.855 36.0998 142.675 36.1097C142.181 36.1492 141.712 35.8726 141.501 35.4181C141.223 34.8649 141.057 34.2622 141.013 33.6398ZM143.701 32.8495C143.716 32.4345 143.686 32.0196 143.603 31.6145C143.559 31.3181 143.457 31.0316 143.31 30.7748C143.154 30.5821 142.919 30.4734 142.675 30.4784C142.499 30.4734 142.328 30.5278 142.186 30.6266C141.985 30.8044 141.863 31.0514 141.844 31.3181C141.721 31.8368 141.673 32.3654 141.697 32.8989V33.1952C141.702 33.7633 141.785 34.3264 141.941 34.8748C142.029 35.2699 142.372 35.5515 142.772 35.5663C143.163 35.5663 143.408 35.3193 143.554 34.8748C143.691 34.3264 143.76 33.7633 143.75 33.1952L143.701 32.8495Z" fill="#7B7979"/>
<path d="M148.882 30.083H149.517V34.4794C149.517 34.7807 149.566 35.082 149.664 35.3685C149.776 35.5859 150.011 35.7045 150.25 35.6649C150.441 35.66 150.622 35.6106 150.788 35.5167C150.915 35.4179 150.998 35.2796 151.032 35.1216C151.096 34.8795 151.116 34.6276 151.081 34.3806V30.083H151.717V34.3312C151.707 34.6622 151.678 34.9931 151.619 35.3192C151.57 35.5711 151.428 35.7983 151.228 35.9613C150.969 36.1392 150.661 36.2281 150.348 36.2083C150.045 36.2132 149.742 36.1441 149.468 36.0107C149.258 35.8724 149.102 35.6649 149.028 35.4179C148.945 35.0969 148.911 34.761 148.931 34.43V30.083H148.882Z" fill="#7B7979"/>
<path d="M156.458 30.0829H157.338C157.69 30.0483 158.047 30.1175 158.364 30.2805C158.574 30.3941 158.741 30.5621 158.853 30.7745C158.931 31.0313 158.98 31.2981 159 31.5648C159.005 31.8662 158.951 32.1675 158.853 32.454C158.78 32.6565 158.643 32.8294 158.462 32.948C158.296 33.0418 158.115 33.111 157.924 33.1456C157.714 33.19 157.504 33.2048 157.289 33.195H157.093V36.1094H156.458V30.0829ZM157.093 30.5769V32.701H157.436C157.68 32.7109 157.919 32.6417 158.12 32.5034C158.315 32.2712 158.403 31.965 158.364 31.6636V31.466C158.359 31.2734 158.311 31.0906 158.218 30.9227C158.159 30.7893 158.056 30.6856 157.924 30.6263C157.719 30.567 157.504 30.5374 157.289 30.5275L157.093 30.5769Z" fill="#7B7979"/>
</g>
<defs>
<clipPath id="clip0">
<rect width="159" height="41" fill="white"/>
</clipPath>
</defs>
</svg>
