<svg width="24" height="24" viewBox="0 0 24 24" fill="none" xmlns="http://www.w3.org/2000/svg">
<path d="M5.73068 9.63158C5.97804 9.63158 6.21527 9.73139 6.39018 9.90906C6.56509 10.0867 6.66335 10.3277 6.66335 10.5789C8.12871 10.5768 9.55181 11.0775 10.7018 12H12.7257C13.969 12 15.0854 12.5495 15.8539 13.4211H18.7881C19.6697 13.4208 20.5333 13.6744 21.2788 14.1525C22.0243 14.6305 22.6211 15.3134 23 16.122C20.7942 19.0787 17.223 21 13.192 21C10.5899 21 8.38879 20.4287 6.60739 19.4293C6.54214 19.6122 6.42294 19.7702 6.26605 19.8817C6.10915 19.9933 5.9222 20.053 5.73068 20.0526H2.93267C2.68531 20.0526 2.44808 19.9528 2.27317 19.7752C2.09826 19.5975 2 19.3565 2 19.1053V10.5789C2 10.3277 2.09826 10.0867 2.27317 9.90906C2.44808 9.73139 2.68531 9.63158 2.93267 9.63158H5.73068ZM6.66428 12.4737L6.66335 17.2314L6.70532 17.2617C8.37946 18.4554 10.56 19.1053 13.192 19.1053C15.9938 19.1053 18.6006 18.0101 20.4995 16.14L20.6236 16.014L20.5116 15.9193C20.0712 15.5689 19.5374 15.361 18.9793 15.3224L18.7881 15.3158H16.8192C16.8863 15.6208 16.9227 15.9373 16.9227 16.2632V17.2105H8.52869V15.3158L14.8615 15.3148L14.8298 15.2409C14.6511 14.8616 14.3761 14.5373 14.0332 14.3016C13.6903 14.0658 13.2918 13.927 12.8787 13.8995L12.7257 13.8947H9.99298C9.55958 13.4445 9.04191 13.0868 8.47042 12.8428C7.89893 12.5987 7.28516 12.4732 6.66522 12.4737H6.66428ZM4.79801 11.5263H3.86534V18.1579H4.79801V11.5263ZM17.8554 5.84211C18.5975 5.84211 19.3092 6.14154 19.8339 6.67454C20.3586 7.20754 20.6534 7.93044 20.6534 8.68421C20.6534 9.43798 20.3586 10.1609 19.8339 10.6939C19.3092 11.2269 18.5975 11.5263 17.8554 11.5263C17.1133 11.5263 16.4016 11.2269 15.8769 10.6939C15.3522 10.1609 15.0574 9.43798 15.0574 8.68421C15.0574 7.93044 15.3522 7.20754 15.8769 6.67454C16.4016 6.14154 17.1133 5.84211 17.8554 5.84211ZM17.8554 7.73684C17.608 7.73684 17.3708 7.83665 17.1959 8.01432C17.021 8.19199 16.9227 8.43295 16.9227 8.68421C16.9227 8.93547 17.021 9.17643 17.1959 9.3541C17.3708 9.53177 17.608 9.63158 17.8554 9.63158C18.1028 9.63158 18.34 9.53177 18.5149 9.3541C18.6898 9.17643 18.7881 8.93547 18.7881 8.68421C18.7881 8.43295 18.6898 8.19199 18.5149 8.01432C18.34 7.83665 18.1028 7.73684 17.8554 7.73684ZM11.3267 3C12.0688 3 12.7805 3.29944 13.3052 3.83243C13.8299 4.36543 14.1247 5.08833 14.1247 5.84211C14.1247 6.59588 13.8299 7.31878 13.3052 7.85178C12.7805 8.38478 12.0688 8.68421 11.3267 8.68421C10.5846 8.68421 9.87294 8.38478 9.34821 7.85178C8.82348 7.31878 8.52869 6.59588 8.52869 5.84211C8.52869 5.08833 8.82348 4.36543 9.34821 3.83243C9.87294 3.29944 10.5846 3 11.3267 3ZM11.3267 4.89474C11.0793 4.89474 10.8421 4.99455 10.6672 5.17221C10.4923 5.34988 10.394 5.59085 10.394 5.84211C10.394 6.09336 10.4923 6.33433 10.6672 6.512C10.8421 6.68966 11.0793 6.78947 11.3267 6.78947C11.5741 6.78947 11.8113 6.68966 11.9862 6.512C12.1611 6.33433 12.2594 6.09336 12.2594 5.84211C12.2594 5.59085 12.1611 5.34988 11.9862 5.17221C11.8113 4.99455 11.5741 4.89474 11.3267 4.89474Z" fill="#231F20"/>
</svg>
